<?xml version="1.0" encoding="UTF-8"?>
<svg xmlns="http://www.w3.org/2000/svg" xmlns:xlink="http://www.w3.org/1999/xlink" width="40pt" height="40pt" viewBox="0 0 40 40" version="1.1">
<g id="surface1">
<path style=" stroke:none;fill-rule:nonzero;fill:#FFFFFF;fill-opacity:1;" d="M 38.292969 1.347656 L 38.246094 1.304688 C 37.324219 0.464844 36.128906 0 34.882812 0 C 33.488281 0 32.144531 0.589844 31.203125 1.621094 L 13.390625 21.121094 C 13.230469 21.300781 13.105469 21.511719 13.03125 21.738281 L 10.9375 28.015625 C 10.695312 28.742188 10.816406 29.546875 11.261719 30.164062 C 11.710938 30.789062 12.433594 31.160156 13.195312 31.160156 C 13.527344 31.160156 13.851562 31.09375 14.15625 30.957031 L 20.21875 28.304688 C 20.441406 28.207031 20.636719 28.066406 20.800781 27.890625 L 38.613281 8.390625 C 40.464844 6.359375 40.320312 3.203125 38.292969 1.347656 Z M 14.949219 26.855469 L 16.175781 23.171875 L 16.28125 23.058594 L 18.609375 25.1875 L 18.507812 25.300781 Z M 36.070312 6.070312 L 20.929688 22.648438 L 18.601562 20.519531 L 33.742188 3.941406 C 34.039062 3.617188 34.445312 3.441406 34.882812 3.441406 C 35.269531 3.441406 35.640625 3.582031 35.925781 3.84375 L 35.972656 3.886719 C 36.601562 4.460938 36.644531 5.441406 36.070312 6.070312 Z M 36.070312 6.070312 "/>
<path style=" stroke:none;fill-rule:nonzero;fill:#FFFFFF;fill-opacity:1;" d="M 34.835938 15.867188 C 33.886719 15.867188 33.117188 16.636719 33.117188 17.585938 L 33.117188 32.1875 C 33.117188 34.597656 31.15625 36.558594 28.742188 36.558594 L 7.898438 36.558594 C 5.488281 36.558594 3.527344 34.597656 3.527344 32.1875 L 3.527344 11.511719 C 3.527344 9.101562 5.488281 7.140625 7.898438 7.140625 L 22.988281 7.140625 C 23.9375 7.140625 24.707031 6.367188 24.707031 5.417969 C 24.707031 4.46875 23.9375 3.699219 22.988281 3.699219 L 7.898438 3.699219 C 3.589844 3.699219 0.0859375 7.203125 0.0859375 11.511719 L 0.0859375 32.1875 C 0.0859375 36.496094 3.59375 40 7.898438 40 L 28.742188 40 C 33.050781 40 36.558594 36.496094 36.558594 32.1875 L 36.558594 17.585938 C 36.558594 16.636719 35.785156 15.867188 34.835938 15.867188 Z M 34.835938 15.867188 "/>
</g>
</svg>
