<?xml version="1.0" encoding="UTF-8"?>
<svg xmlns="http://www.w3.org/2000/svg" xmlns:xlink="http://www.w3.org/1999/xlink" width="40pt" height="40pt" viewBox="0 0 40 40" version="1.1">
<g id="surface1">
<path style=" stroke:none;fill-rule:nonzero;fill:#DF2D3C;fill-opacity:1;" d="M 18.75 37.5 L 2.5 37.5 L 2.5 2.5 L 18.75 2.5 C 19.441406 2.5 20 1.941406 20 1.25 C 20 0.558594 19.441406 0 18.75 0 L 1.25 0 C 0.558594 0 0 0.558594 0 1.25 L 0 38.75 C 0 39.441406 0.558594 40 1.25 40 L 18.75 40 C 19.441406 40 20 39.441406 20 38.75 C 20 38.058594 19.441406 37.5 18.75 37.5 Z M 18.75 37.5 "/>
<path style=" stroke:none;fill-rule:nonzero;fill:#DF2D3C;fill-opacity:1;" d="M 39.636719 19.128906 L 31.011719 10.378906 C 30.523438 9.886719 29.730469 9.886719 29.246094 10.378906 C 28.757812 10.871094 28.757812 11.671875 29.246094 12.164062 L 35.746094 18.757812 L 10.003906 18.757812 C 9.3125 18.757812 8.753906 19.324219 8.753906 20.019531 C 8.753906 20.71875 9.3125 21.28125 10.003906 21.28125 L 35.746094 21.28125 L 29.246094 27.875 C 28.757812 28.371094 28.757812 29.167969 29.246094 29.660156 C 29.734375 30.15625 30.523438 30.15625 31.011719 29.660156 L 39.636719 20.914062 C 40.117188 20.425781 40.125 19.613281 39.636719 19.128906 Z M 39.636719 19.128906 "/>
</g>
</svg>
